<?xml version="1.0" standalone="no"?>
<!DOCTYPE svg PUBLIC "-//W3C//DTD SVG 20010904//EN"
 "http://www.w3.org/TR/2001/REC-SVG-20010904/DTD/svg10.dtd">
<svg version="1.0" xmlns="http://www.w3.org/2000/svg"
 width="512.000000pt" height="512.000000pt" viewBox="0 0 512.000000 512.000000"
 preserveAspectRatio="xMidYMid meet">
<metadata>
Created by potrace 1.14, written by Peter Selinger 2001-2017
</metadata>
<g transform="translate(0.000000,512.000000) scale(0.100000,-0.100000)"
fill="#000000" stroke="none">
<path d="M1257 4594 c-1 -1 -36 -4 -77 -8 -41 -3 -84 -8 -95 -10 -71 -14 -116
-31 -131 -47 -16 -18 -16 -20 0 -38 17 -19 120 -69 156 -76 11 -2 26 -7 33
-12 6 -4 17 -8 22 -9 13 -3 314 -103 340 -114 11 -4 34 -13 50 -18 17 -6 39
-14 50 -18 11 -4 23 -8 28 -9 4 -2 9 -4 12 -5 3 -1 8 -3 13 -4 17 -4 59 -18
77 -26 22 -9 57 -22 65 -25 37 -10 217 -79 277 -106 24 -10 50 -19 58 -19 8 0
15 -4 15 -10 0 -5 3 -9 8 -8 4 1 36 -11 72 -27 36 -17 68 -29 73 -27 4 1 7 -3
7 -8 0 -6 5 -10 11 -10 5 0 71 -29 145 -64 74 -36 137 -65 141 -65 3 1 9 -3
12 -8 3 -4 31 -21 61 -37 30 -16 60 -35 66 -42 6 -8 16 -14 23 -14 16 0 14
-14 -6 -41 -25 -34 -41 -60 -55 -89 -7 -14 -18 -31 -25 -38 -7 -7 -13 -18 -13
-23 0 -5 -17 -35 -37 -66 -21 -32 -43 -67 -49 -78 -22 -41 -39 -70 -44 -75 -7
-7 -34 -56 -60 -107 -12 -23 -28 -47 -36 -54 -8 -6 -14 -15 -14 -19 0 -5 -24
-48 -53 -97 -44 -72 -228 -381 -381 -640 -30 -50 -59 -68 -68 -41 -3 7 -57
-77 -122 -187 -65 -110 -126 -211 -135 -225 -14 -21 -134 -221 -166 -278 -52
-92 -141 -238 -148 -243 -5 -3 -9 -10 -9 -15 -1 -10 -20 -43 -49 -86 -11 -15
-19 -29 -19 -32 0 -3 -45 -80 -101 -172 -56 -92 -103 -173 -106 -181 -3 -7 2
-19 10 -28 9 -8 24 -25 34 -38 24 -31 116 -97 142 -102 11 -2 28 -8 38 -13 10
-5 38 -12 63 -16 l45 -6 135 228 c74 125 202 340 284 477 82 138 158 267 170
287 12 21 74 126 139 234 113 189 117 198 98 212 -18 16 -18 17 8 56 14 23 30
44 36 48 5 4 6 8 2 8 -5 0 0 12 10 28 10 15 25 39 32 54 8 15 21 36 30 46 9
10 17 24 19 32 2 8 8 17 13 18 5 2 7 8 3 13 -3 5 0 9 5 9 6 0 11 4 11 9 0 8
111 196 128 216 4 6 8 12 8 15 0 3 7 16 15 30 9 14 23 36 31 50 8 14 15 29 16
34 0 5 4 12 9 15 12 9 73 111 73 122 0 5 5 9 10 9 6 0 10 4 10 9 0 10 88 163
99 171 3 3 7 12 9 20 2 8 9 22 16 30 7 8 27 40 45 70 17 30 36 62 41 70 5 8
26 44 46 80 21 36 41 67 45 70 4 3 12 18 18 33 10 26 31 38 31 16 0 -5 4 -7
10 -4 5 3 10 1 10 -5 0 -6 4 -9 8 -6 5 3 18 -4 30 -14 12 -11 23 -20 26 -20 7
0 274 -187 326 -229 14 -11 75 -59 135 -107 61 -48 113 -93 117 -98 4 -6 8 -8
8 -4 0 3 15 -8 33 -25 18 -18 55 -50 82 -72 27 -22 69 -58 93 -80 25 -22 54
-48 66 -58 43 -37 161 -143 186 -167 14 -14 64 -59 110 -100 46 -41 91 -82
100 -90 42 -41 144 -122 170 -135 78 -40 81 45 8 203 -17 37 -32 69 -33 72 -4
16 -61 117 -109 194 -31 48 -56 90 -56 92 0 2 -6 12 -14 21 -8 10 -58 77 -112
148 -53 72 -100 132 -103 135 -3 3 -26 28 -49 57 -24 29 -58 67 -75 85 -18 19
-48 51 -68 73 -73 81 -288 282 -360 336 -19 15 -50 41 -69 58 -19 17 -41 31
-47 31 -7 0 -13 4 -13 8 0 5 -29 29 -65 53 -63 43 -76 61 -54 74 14 9 6 30
-12 30 -16 1 -15 6 2 51 11 29 10 34 -21 73 -71 88 -250 133 -250 62 0 -14
-27 -14 -35 -1 -4 7 -14 3 -25 -10 l-17 -20 -90 44 c-77 38 -156 75 -173 81
-3 1 -18 7 -35 14 -16 7 -31 12 -33 12 -1 -1 -15 5 -31 13 -54 28 -408 140
-509 161 -9 2 -59 13 -110 24 -51 12 -120 25 -155 31 -34 5 -75 12 -92 14
-113 18 -485 40 -498 30z"/>
</g>
</svg>
